#tb 0: 1/25
#media_type 0: video
#codec_id 0: rawvideo
#dimensions 0: 352x288
#sar 0: 0/1
0,          0,          0,        1,   608256, 0x6ee1fc6f
0,          1,          1,        1,   608256, 0x02571112
0,          2,          2,        1,   608256, 0x810b8e71
0,          3,          3,        1,   608256, 0xd0719aa8
0,          4,          4,        1,   608256, 0x4107d8dc
0,          5,          5,        1,   608256, 0x3b3ccd75
0,          6,          6,        1,   608256, 0xaccc825f
0,          7,          7,        1,   608256, 0x1b39d48b
0,          8,          8,        1,   608256, 0x44bc6640
0,          9,          9,        1,   608256, 0x113c4ec1
0,         10,         10,        1,   608256, 0x7fc236bc
0,         11,         11,        1,   608256, 0x8f66ec2e
0,         12,         12,        1,   608256, 0x15540cb9
0,         13,         13,        1,   608256, 0x98bf546d
0,         14,         14,        1,   608256, 0x31b948bc
0,         15,         15,        1,   608256, 0x4c12f467
0,         16,         16,        1,   608256, 0x5d2bb620
0,         17,         17,        1,   608256, 0x9e093473
0,         18,         18,        1,   608256, 0x43becc2d
0,         19,         19,        1,   608256, 0x2e96a0b1
0,         20,         20,        1,   608256, 0xa12c0b2c
0,         21,         21,        1,   608256, 0x485c37d9
0,         22,         22,        1,   608256, 0x20072c6d
0,         23,         23,        1,   608256, 0x64991ea0
0,         24,         24,        1,   608256, 0x55566af9
0,         25,         25,        1,   608256, 0x44e940ae
0,         26,         26,        1,   608256, 0x539882dc
0,         27,         27,        1,   608256, 0xa896c844
0,         28,         28,        1,   608256, 0x2474a154
0,         29,         29,        1,   608256, 0xecb6f394
0,         30,         30,        1,   608256, 0x709b70e0
0,         31,         31,        1,   608256, 0xd4d316e4
0,         32,         32,        1,   608256, 0xe04a9bcc
0,         33,         33,        1,   608256, 0x26522569
0,         34,         34,        1,   608256, 0x230cd3d3
0,         35,         35,        1,   608256, 0x65037fc4
0,         36,         36,        1,   608256, 0xc005b5a4
0,         37,         37,        1,   608256, 0x2a48346a
0,         38,         38,        1,   608256, 0x9c84563b
0,         39,         39,        1,   608256, 0x578ee3b9
0,         40,         40,        1,   608256, 0xbb0b9f2d
0,         41,         41,        1,   608256, 0x274c3eb4
0,         42,         42,        1,   608256, 0xe864b92a
0,         43,         43,        1,   608256, 0x57d17674
0,         44,         44,        1,   608256, 0x3d5de077
0,         45,         45,        1,   608256, 0x7f4c7068
0,         46,         46,        1,   608256, 0xd26aac55
0,         47,         47,        1,   608256, 0x472a0ada
0,         48,         48,        1,   608256, 0x6bf8e1d3
0,         49,         49,        1,   608256, 0xb1adab52
